<svg version="1.1" id="Layer_1" xmlns="http://www.w3.org/2000/svg" xmlns:xlink="http://www.w3.org/1999/xlink" x="0px" y="0px"
	 width="100%" viewBox="0 0 636 178" enable-background="new 0 0 636 178" xml:space="preserve">
<path fill="#000000" opacity="1.000000" stroke="none" 
	d="
M1.000000,38.000000 
	C1.000000,25.680841 1.000000,13.361683 1.000000,1.000000 
	C115.354225,1.000000 229.708450,1.000000 344.531128,1.468657 
	C344.999542,49.837784 344.999542,97.738251 344.999542,145.613068 
	C358.089935,145.613068 370.324738,145.613068 383.110901,145.613068 
	C383.110901,133.095291 383.110901,120.952324 383.110901,108.809349 
	C383.412415,108.774834 383.713898,108.740318 384.015411,108.705803 
	C388.181763,121.098854 392.348114,133.491898 396.431458,145.638000 
	C410.804047,145.638000 424.691925,145.638000 439.013153,145.638000 
	C432.509460,129.302933 426.071869,113.475395 419.980530,97.515709 
	C418.900085,94.684875 418.187042,90.916374 419.150543,88.247314 
	C422.497986,78.974365 426.681213,70.004486 430.501923,60.900593 
	C433.729950,53.208862 436.895996,45.491100 440.393372,37.051533 
	C426.934631,37.051533 414.329712,36.989574 401.728455,37.176216 
	C400.781891,37.190243 399.469055,38.816746 398.993835,39.968929 
	C396.236328,46.654591 393.684906,53.425129 391.051819,60.162277 
	C388.688660,66.208611 386.309998,72.248901 383.938202,78.291862 
	C383.625458,78.180290 383.312744,78.068726 383.000000,77.957161 
	C383.000000,52.304771 383.000000,26.652386 383.000000,1.000000 
	C467.666687,1.000000 552.333374,1.000000 637.000000,1.000000 
	C637.000000,12.764592 637.000000,24.413637 636.531372,36.533348 
	C625.067322,37.003254 614.071350,37.064823 603.077026,36.956745 
	C600.416443,36.930588 598.535278,37.452011 598.072754,40.395081 
	C596.388062,51.115047 594.714905,61.836975 592.981140,72.549049 
	C591.271912,83.109283 589.494385,93.658447 587.746887,104.212471 
	C587.363464,104.204735 586.980042,104.196991 586.596619,104.189255 
	C583.248779,81.920967 579.900940,59.652676 576.540771,37.302299 
	C562.976379,37.302299 549.722595,37.302299 535.411438,37.302299 
	C536.697021,42.177322 537.857544,46.524902 538.989563,50.879883 
	C544.241028,71.082863 549.506653,91.282196 554.721252,111.494690 
	C557.144897,120.889084 559.579285,130.283432 561.791565,139.728683 
	C563.406494,146.623749 561.408936,148.954117 554.353210,148.994888 
	C550.398254,149.017761 546.442993,148.999008 542.144043,148.999008 
	C543.136536,159.425125 544.068298,169.212555 545.000000,179.000000 
	C363.787689,179.000000 182.575348,179.000000 1.000000,179.000000 
	C1.000000,141.979904 1.000000,104.958611 1.459389,67.468262 
	C5.167684,66.999207 8.416591,66.999207 12.001359,66.999207 
	C12.001359,75.843361 11.882216,83.827545 12.028714,91.806847 
	C12.260235,104.416969 12.110548,117.071205 13.173276,129.617737 
	C14.097301,140.526749 23.301395,148.039505 34.283394,147.945694 
	C44.234108,147.860687 54.179588,147.268753 64.130447,147.026688 
	C66.877159,146.959885 67.949539,145.868210 68.040314,143.128769 
	C68.176857,139.007919 68.797218,134.903366 68.941032,130.782440 
	C69.107262,126.019424 68.979706,121.246170 68.979706,115.990990 
	C64.154518,115.990990 60.021095,115.973709 55.887894,115.996330 
	C52.435307,116.015236 50.814613,114.613792 50.939995,110.885513 
	C51.163929,104.226753 51.000751,97.554993 51.000294,90.888664 
	C50.999763,83.109901 51.000168,75.331139 51.000168,66.996719 
	C56.095848,66.996719 60.569988,66.760132 65.004272,67.078552 
	C68.042114,67.296715 69.608566,65.853584 69.676559,63.355202 
	C69.899994,55.145416 69.760590,46.925751 69.760590,37.911076 
	C64.054230,37.911076 57.679981,37.911076 50.770599,37.911076 
	C50.770599,30.891178 50.770599,24.644520 50.770599,18.319378 
	C38.936871,18.319378 27.678719,18.319378 16.134039,18.319378 
	C15.315799,24.917707 14.532189,31.236773 13.693500,38.000000 
	C9.238213,38.000000 5.119106,38.000000 1.000000,38.000000 
M486.592926,80.180481 
	C479.661377,81.451622 472.648315,82.390419 465.816040,84.066322 
	C453.387909,87.114830 443.515411,93.363136 441.467102,107.238396 
	C440.696808,112.456390 440.528381,117.920822 441.129089,123.153107 
	C442.717590,136.989685 449.492249,145.884720 461.587128,147.667343 
	C473.753021,149.460419 486.072510,148.614761 493.650513,138.425537 
	C498.533081,141.532379 502.672821,145.809723 507.512146,146.858276 
	C514.657410,148.406448 522.300110,147.740509 529.731567,147.759262 
	C530.472961,147.761124 531.728943,146.052811 531.881104,145.011810 
	C532.997070,137.374359 534.003540,129.714905 534.709473,122.031586 
	C534.793091,121.121262 532.863586,119.170418 531.846619,119.156036 
	C526.082947,119.074493 524.886902,115.481209 525.044312,110.864777 
	C525.161987,107.413254 525.924255,103.977211 525.954468,100.530388 
	C526.068237,87.542862 526.306030,74.544807 525.926697,61.567375 
	C525.385193,43.038876 516.359863,36.765633 501.250092,35.207039 
	C482.677979,33.291290 464.365204,36.540028 446.338837,41.100639 
	C444.131439,41.659103 442.658081,42.357944 443.605530,45.564911 
	C444.947144,50.106049 445.203186,54.961342 446.022888,59.664989 
	C446.965912,65.075996 448.017609,70.468056 448.953369,75.498970 
	C460.197510,73.261505 470.602753,70.961372 481.108490,69.294693 
	C483.202850,68.962440 486.790405,70.466194 487.693207,72.176842 
	C488.747314,74.174232 487.612244,77.326958 486.592926,80.180481 
M247.117401,66.878571 
	C243.757767,84.537964 242.731812,102.244476 249.090210,119.391846 
	C254.508255,134.003265 264.528107,144.300522 280.571014,146.995621 
	C294.586121,149.350067 308.537445,148.356186 322.339722,144.990601 
	C331.000732,142.878662 331.006500,142.940674 330.041290,133.944382 
	C329.935150,132.955185 330.104523,131.934738 329.981659,130.949310 
	C329.281006,125.328430 328.530457,119.713783 327.764404,113.848511 
	C319.192749,115.390205 311.426544,116.651070 303.719208,118.204002 
	C291.053711,120.755943 284.590515,116.033241 283.800079,102.854454 
	C300.734528,102.854454 317.641571,102.854454 334.987885,102.854454 
	C334.987885,89.584053 335.706970,76.844254 334.776642,64.226067 
	C333.922577,52.642265 327.464325,43.472656 316.818634,38.681122 
	C304.794891,33.269352 291.914948,32.680779 278.996246,35.509296 
	C262.186035,39.189854 252.067413,49.843788 247.117401,66.878571 
M184.467499,34.988708 
	C170.793564,36.396439 159.448822,42.251778 153.273544,54.719063 
	C142.636734,76.193764 143.060822,98.737038 150.694809,120.894859 
	C155.222885,134.037674 165.046066,143.647003 178.829895,146.579956 
	C195.678040,150.164917 212.689941,148.477921 229.184769,143.267715 
	C230.386612,142.888107 231.954300,140.778992 231.848633,139.609848 
	C231.083313,131.142426 229.931152,122.709969 228.907410,114.315132 
	C227.610672,114.172653 226.930191,113.938828 226.315567,114.054596 
	C219.057465,115.421669 211.754898,116.610199 204.571091,118.300667 
	C193.762589,120.844101 183.734573,115.487022 184.918961,102.841354 
	C201.758698,102.841354 218.660629,102.841354 236.992554,102.841354 
	C236.992554,91.512093 237.673172,80.709518 236.740677,70.048042 
	C236.169235,63.514565 233.998413,56.755455 231.021042,50.868908 
	C223.205322,35.416531 199.946793,32.095592 184.467499,34.988708 
M140.999710,60.366577 
	C140.999710,52.021606 140.999710,43.676636 140.999710,35.246910 
	C130.811737,34.373714 120.777657,34.324490 114.091873,43.296474 
	C112.185204,41.011940 110.607216,37.386448 108.844231,37.294136 
	C98.436691,36.749180 87.986130,37.025700 77.440430,37.025700 
	C77.440430,73.661575 77.440430,109.664162 77.440430,145.601990 
	C90.449890,145.601990 103.013847,145.601990 115.997864,145.601990 
	C115.997864,143.235229 115.997810,141.263626 115.997871,139.292038 
	C115.998413,120.472664 115.982933,101.653267 116.006828,82.833923 
	C116.017609,74.341049 118.389297,72.034767 127.001808,72.003029 
	C131.130997,71.987808 135.260284,72.000404 139.698669,72.000404 
	C140.171143,68.122116 140.585312,64.722328 140.999710,60.366577 
z"/>
<path fill="#686363" opacity="1.000000" stroke="none" 
	d="
M382.531342,1.000000 
	C383.000000,26.652386 383.000000,52.304771 383.000000,77.957161 
	C383.312744,78.068726 383.625458,78.180290 383.938202,78.291862 
	C386.309998,72.248901 388.688660,66.208611 391.051819,60.162277 
	C393.684906,53.425129 396.236328,46.654591 398.993835,39.968929 
	C399.469055,38.816746 400.781891,37.190243 401.728455,37.176216 
	C414.329712,36.989574 426.934631,37.051533 440.393372,37.051533 
	C436.895996,45.491100 433.729950,53.208862 430.501923,60.900593 
	C426.681213,70.004486 422.497986,78.974365 419.150543,88.247314 
	C418.187042,90.916374 418.900085,94.684875 419.980530,97.515709 
	C426.071869,113.475395 432.509460,129.302933 439.013153,145.638000 
	C424.691925,145.638000 410.804047,145.638000 396.431458,145.638000 
	C392.348114,133.491898 388.181763,121.098854 384.015411,108.705803 
	C383.713898,108.740318 383.412415,108.774834 383.110901,108.809349 
	C383.110901,120.952324 383.110901,133.095291 383.110901,145.613068 
	C370.324738,145.613068 358.089935,145.613068 344.999542,145.613068 
	C344.999542,97.738251 344.999542,49.837784 344.999756,1.468657 
	C357.354218,1.000000 369.708466,1.000000 382.531342,1.000000 
z"/>
<path fill="#686363" opacity="1.000000" stroke="none" 
	d="
M545.468628,179.000000 
	C544.068298,169.212555 543.136536,159.425125 542.144043,148.999008 
	C546.442993,148.999008 550.398254,149.017761 554.353210,148.994888 
	C561.408936,148.954117 563.406494,146.623749 561.791565,139.728683 
	C559.579285,130.283432 557.144897,120.889084 554.721252,111.494690 
	C549.506653,91.282196 544.241028,71.082863 538.989563,50.879883 
	C537.857544,46.524902 536.697021,42.177322 535.411438,37.302299 
	C549.722595,37.302299 562.976379,37.302299 576.540771,37.302299 
	C579.900940,59.652676 583.248779,81.920967 586.596619,104.189255 
	C586.980042,104.196991 587.363464,104.204735 587.746887,104.212471 
	C589.494385,93.658447 591.271912,83.109283 592.981140,72.549049 
	C594.714905,61.836975 596.388062,51.115047 598.072754,40.395081 
	C598.535278,37.452011 600.416443,36.930588 603.077026,36.956745 
	C614.071350,37.064823 625.067322,37.003254 636.531372,37.002007 
	C637.000000,38.388889 637.000000,39.777779 636.610840,41.494743 
	C635.844788,42.322155 635.260376,42.769554 635.120544,43.328239 
	C626.391296,78.197182 617.829590,113.108719 608.933472,147.934860 
	C605.662781,160.738876 601.402588,173.177887 586.551086,177.396484 
	C586.240601,177.484680 586.178162,178.446014 586.000000,179.000000 
	C572.645752,179.000000 559.291565,179.000000 545.468628,179.000000 
z"/>
<path fill="#686363" opacity="1.000000" stroke="none" 
	d="
M1.000000,38.468658 
	C5.119106,38.000000 9.238213,38.000000 13.693500,38.000000 
	C14.532189,31.236773 15.315799,24.917707 16.134039,18.319378 
	C27.678719,18.319378 38.936871,18.319378 50.770599,18.319378 
	C50.770599,24.644520 50.770599,30.891178 50.770599,37.911076 
	C57.679981,37.911076 64.054230,37.911076 69.760590,37.911076 
	C69.760590,46.925751 69.899994,55.145416 69.676559,63.355202 
	C69.608566,65.853584 68.042114,67.296715 65.004272,67.078552 
	C60.569988,66.760132 56.095848,66.996719 51.000168,66.996719 
	C51.000168,75.331139 50.999763,83.109901 51.000294,90.888664 
	C51.000751,97.554993 51.163929,104.226753 50.939995,110.885513 
	C50.814613,114.613792 52.435307,116.015236 55.887894,115.996330 
	C60.021095,115.973709 64.154518,115.990990 68.979706,115.990990 
	C68.979706,121.246170 69.107262,126.019424 68.941032,130.782440 
	C68.797218,134.903366 68.176857,139.007919 68.040314,143.128769 
	C67.949539,145.868210 66.877159,146.959885 64.130447,147.026688 
	C54.179588,147.268753 44.234108,147.860687 34.283394,147.945694 
	C23.301395,148.039505 14.097301,140.526749 13.173276,129.617737 
	C12.110548,117.071205 12.260235,104.416969 12.028714,91.806847 
	C11.882216,83.827545 12.001359,75.843361 12.001359,66.999207 
	C8.416591,66.999207 5.167684,66.999207 1.459389,66.999603 
	C1.000000,57.645771 1.000000,48.291542 1.000000,38.468658 
z"/>
<path fill="#000000" opacity="1.000000" stroke="none" 
	d="
M586.468628,179.000000 
	C586.178162,178.446014 586.240601,177.484680 586.551086,177.396484 
	C601.402588,173.177887 605.662781,160.738876 608.933472,147.934860 
	C617.829590,113.108719 626.391296,78.197182 635.120544,43.328239 
	C635.260376,42.769554 635.844788,42.322155 636.610840,41.911407 
	C637.000000,87.560158 637.000000,133.120316 637.000000,179.000000 
	C620.313782,179.000000 603.625549,179.000000 586.468628,179.000000 
z"/>
<path fill="#686363" opacity="1.000000" stroke="none" 
	d="
M487.009949,80.079453 
	C487.612244,77.326958 488.747314,74.174232 487.693207,72.176842 
	C486.790405,70.466194 483.202850,68.962440 481.108490,69.294693 
	C470.602753,70.961372 460.197510,73.261505 448.953369,75.498970 
	C448.017609,70.468056 446.965912,65.075996 446.022888,59.664989 
	C445.203186,54.961342 444.947144,50.106049 443.605530,45.564911 
	C442.658081,42.357944 444.131439,41.659103 446.338837,41.100639 
	C464.365204,36.540028 482.677979,33.291290 501.250092,35.207039 
	C516.359863,36.765633 525.385193,43.038876 525.926697,61.567375 
	C526.306030,74.544807 526.068237,87.542862 525.954468,100.530388 
	C525.924255,103.977211 525.161987,107.413254 525.044312,110.864777 
	C524.886902,115.481209 526.082947,119.074493 531.846619,119.156036 
	C532.863586,119.170418 534.793091,121.121262 534.709473,122.031586 
	C534.003540,129.714905 532.997070,137.374359 531.881104,145.011810 
	C531.728943,146.052811 530.472961,147.761124 529.731567,147.759262 
	C522.300110,147.740509 514.657410,148.406448 507.512146,146.858276 
	C502.672821,145.809723 498.533081,141.532379 493.650513,138.425537 
	C486.072510,148.614761 473.753021,149.460419 461.587128,147.667343 
	C449.492249,145.884720 442.717590,136.989685 441.129089,123.153107 
	C440.528381,117.920822 440.696808,112.456390 441.467102,107.238396 
	C443.515411,93.363136 453.387909,87.114830 465.816040,84.066322 
	C472.648315,82.390419 479.661377,81.451622 487.009949,80.079453 
M479.561157,105.976402 
	C478.653961,107.142555 477.045990,108.268509 476.976349,109.482697 
	C476.797241,112.605682 476.322418,116.428329 477.854309,118.695107 
	C478.982086,120.363968 483.231262,120.830559 485.835114,120.375870 
	C489.470612,119.741028 490.118713,116.304070 490.019287,112.904411 
	C489.927795,109.776276 489.999847,106.643349 489.999847,102.244781 
	C486.144684,103.497337 483.138458,104.474083 479.561157,105.976402 
z"/>
<path fill="#686363" opacity="1.000000" stroke="none" 
	d="
M247.271927,66.495926 
	C252.067413,49.843788 262.186035,39.189854 278.996246,35.509296 
	C291.914948,32.680779 304.794891,33.269352 316.818634,38.681122 
	C327.464325,43.472656 333.922577,52.642265 334.776642,64.226067 
	C335.706970,76.844254 334.987885,89.584053 334.987885,102.854454 
	C317.641571,102.854454 300.734528,102.854454 283.800079,102.854454 
	C284.590515,116.033241 291.053711,120.755943 303.719208,118.204002 
	C311.426544,116.651070 319.192749,115.390205 327.764404,113.848511 
	C328.530457,119.713783 329.281006,125.328430 329.981659,130.949310 
	C330.104523,131.934738 329.935150,132.955185 330.041290,133.944382 
	C331.006500,142.940674 331.000732,142.878662 322.339722,144.990601 
	C308.537445,148.356186 294.586121,149.350067 280.571014,146.995621 
	C264.528107,144.300522 254.508255,134.003265 249.090210,119.391846 
	C242.731812,102.244476 243.757767,84.537964 247.271927,66.495926 
M284.415649,71.212051 
	C283.847656,74.968620 283.279663,78.725189 282.685425,82.655579 
	C289.407166,82.655579 294.960175,82.655579 300.695709,82.655579 
	C301.222046,77.189163 302.294952,71.387558 296.724915,68.729218 
	C293.191650,67.042931 288.308472,66.436172 284.415649,71.212051 
z"/>
<path fill="#686363" opacity="1.000000" stroke="none" 
	d="
M184.915802,34.972980 
	C199.946793,32.095592 223.205322,35.416531 231.021042,50.868908 
	C233.998413,56.755455 236.169235,63.514565 236.740677,70.048042 
	C237.673172,80.709518 236.992554,91.512093 236.992554,102.841354 
	C218.660629,102.841354 201.758698,102.841354 184.918961,102.841354 
	C183.734573,115.487022 193.762589,120.844101 204.571091,118.300667 
	C211.754898,116.610199 219.057465,115.421669 226.315567,114.054596 
	C226.930191,113.938828 227.610672,114.172653 228.907410,114.315132 
	C229.931152,122.709969 231.083313,131.142426 231.848633,139.609848 
	C231.954300,140.778992 230.386612,142.888107 229.184769,143.267715 
	C212.689941,148.477921 195.678040,150.164917 178.829895,146.579956 
	C165.046066,143.647003 155.222885,134.037674 150.694809,120.894859 
	C143.060822,98.737038 142.636734,76.193764 153.273544,54.719063 
	C159.448822,42.251778 170.793564,36.396439 184.915802,34.972980 
M184.007233,79.506996 
	C184.787445,80.656693 185.509308,82.748756 186.357468,82.801308 
	C191.410110,83.114265 196.491913,82.956078 201.997635,82.956078 
	C201.997635,80.320869 202.042831,78.363724 201.989044,76.409294 
	C201.835831,70.843147 198.940598,68.017815 193.429626,68.000542 
	C186.399200,67.978500 184.725571,69.864952 184.007233,79.506996 
z"/>
<path fill="#686363" opacity="1.000000" stroke="none" 
	d="
M140.999603,60.844563 
	C140.585312,64.722328 140.171143,68.122116 139.698669,72.000404 
	C135.260284,72.000404 131.130997,71.987808 127.001808,72.003029 
	C118.389297,72.034767 116.017609,74.341049 116.006828,82.833923 
	C115.982933,101.653267 115.998413,120.472664 115.997871,139.292038 
	C115.997810,141.263626 115.997864,143.235229 115.997864,145.601990 
	C103.013847,145.601990 90.449890,145.601990 77.440430,145.601990 
	C77.440430,109.664162 77.440430,73.661575 77.440430,37.025700 
	C87.986130,37.025700 98.436691,36.749180 108.844231,37.294136 
	C110.607216,37.386448 112.185204,41.011940 114.091873,43.296474 
	C120.777657,34.324490 130.811737,34.373714 140.999710,35.246910 
	C140.999710,43.676636 140.999710,52.021606 140.999603,60.844563 
z"/>
<path fill="#000000" opacity="1.000000" stroke="none" 
	d="
M479.846680,105.713615 
	C483.138458,104.474083 486.144684,103.497337 489.999847,102.244781 
	C489.999847,106.643349 489.927795,109.776276 490.019287,112.904411 
	C490.118713,116.304070 489.470612,119.741028 485.835114,120.375870 
	C483.231262,120.830559 478.982086,120.363968 477.854309,118.695107 
	C476.322418,116.428329 476.797241,112.605682 476.976349,109.482697 
	C477.045990,108.268509 478.653961,107.142555 479.846680,105.713615 
z"/>
<path fill="#000000" opacity="1.000000" stroke="none" 
	d="
M284.688812,70.903099 
	C288.308472,66.436172 293.191650,67.042931 296.724915,68.729218 
	C302.294952,71.387558 301.222046,77.189163 300.695709,82.655579 
	C294.960175,82.655579 289.407166,82.655579 282.685425,82.655579 
	C283.279663,78.725189 283.847656,74.968620 284.688812,70.903099 
z"/>
<path fill="#000000" opacity="1.000000" stroke="none" 
	d="
M184.005646,79.065887 
	C184.725571,69.864952 186.399200,67.978500 193.429626,68.000542 
	C198.940598,68.017815 201.835831,70.843147 201.989044,76.409294 
	C202.042831,78.363724 201.997635,80.320869 201.997635,82.956078 
	C196.491913,82.956078 191.410110,83.114265 186.357468,82.801308 
	C185.509308,82.748756 184.787445,80.656693 184.005646,79.065887 
z"/>
</svg>